#!OML:ASF E:/inclinewalkrobotboard/Project1/Captureday1/Session1/subject1.ASF
:FULLY-SPECIFIED
:DEGREES
288
root 0 0 0 17.458879547726355 -4.300764515511679 -1.4559809450020493
lowerback 21.32347552968897 -3.25372602096816 -1.1668953068654746
upperback -0.8532674929925221 -4.808228705129946 3.8704120134293305
thorax -12.680806387184575 -2.1419896786212536 5.2522679664883345
lowerneck -9.616413124339365 9.351178770253801 18.622087429761656
upperneck 21.448914351343035 10.959121740420189 -8.288123569999494
head 9.818274964431758 5.935601894895016 -4.612986667390083
rclavicle 1.57242461588119E-15 6.3238424668244895E-15
rhumerus 28.83226989833534 19.136895440680405 -73.83511101370522
rradius 106.06695660017103
rwrist -40.116910459916525
rhand -24.446586661040783 -23.9616053785615
rfingers 7.125019999999996
rthumb 2.080356079168334 -54.383934654352494
lclavicle -2.7316814106917797E-15 6.548824975698567E-15
lhumerus 25.837932880649284 -34.95639764488556 73.12686702125349
lradius 141.76195697655388
lwrist 8.722847419851156
lhand -33.27267841280194 8.22750919252888
lfingers 7.1250199999999415
lthumb -6.445637710949775 38.68297309943756
rfemur -47.72893967208504 2.8660990534810296 29.589175694383012
rtibia 44.54945274985252
rfoot -21.340434493720863 -3.9558102907986328
rtoes -44.28488553521967
lfemur -35.30154543112355 -23.000168719407363 -12.903363669707211
ltibia 10.424557204098633
lfoot -45.957886347411424 7.90821142750487
ltoes -33.784362436521896
289
root 0 0 0 17.44270420095898 -4.338865568231167 -1.452735594830732
lowerback 21.361492023391687 -3.253461449324015 -1.1792240585583444
upperback -0.8432849403658134 -4.8113289173921565 3.8570121224856875
thorax -12.690335061279137 -2.1436626360531372 5.243788346232982
lowerneck -9.623515822839984 9.366887187309967 18.63221162760621
upperneck 21.424682163981508 10.983666256315672 -8.299561677619614
head 9.815339610642477 5.946353507095753 -4.615555454151776
rclavicle 1.467270089403963E-15 6.388980580141033E-15
rhumerus 28.984883188670644 18.420017293942273 -73.41519125342603
rradius 104.77638215681574
rwrist -39.688968117594854
rhand -24.43984893501574 -24.11600139447452
rfingers 7.125019999999997
rthumb 2.088220969334156 -54.53803879488146
lclavicle -2.7287514933390172E-15 6.607669162400407E-15
lhumerus 25.857968593117974 -34.87519929735229 73.06274958000616
lradius 141.7139424673207
lwrist 8.688448003797792
lhand -33.26076791466044 8.21682104296311
lfingers 7.1250199999999415
lthumb -6.433809379831818 38.671388484044904
rfemur -48.320956605353935 3.0074421070657085 29.39459855256831
rtibia 44.744170277306935
rfoot -21.60947096746123 -3.95160671390866
rtoes -44.12892007314842
lfemur -35.16139006179191 -22.993199263565675 -13.000510310139392
ltibia 10.468551478856934
lfoot -45.877089114982084 7.836851250696208
ltoes -33.75468841801074
290
root 0 0 0 17.42945855837767 -4.372895479836249 -1.447999589161968
lowerback 21.394752431383257 -3.253246003593434 -1.1895207796880218
upperback -0.8342726525598092 -4.813856201681582 3.8462560594417274
thorax -12.698422111791547 -2.145037445862629 5.237042201650322
lowerneck -9.630138262046396 9.378778510367688 18.638974600868714
upperneck 21.40252445489611 11.002879161468758 -8.309958164439047
head 9.812105831408726 5.954428079740002 -4.617837637106444
rclavicle 1.336787494882251E-15 6.405586870810873E-15
rhumerus 29.13202277188681 17.764251652954243 -73.0319495682022
rradius 103.614967844299
rwrist -39.31566179474945
rhand -24.435160207816715 -24.25163027250892
rfingers 7.1250199999999975
rthumb 2.0939152542438695 -54.673542166018635
lclavicle -2.7627607894241495E-15 6.625389364491581E-15
lhumerus 25.874345242422812 -34.836734761844376 73.02783554075964
lradius 141.6937441194685
lwrist 8.66878157165798
lhand -33.25768906341624 8.2100600949564
lfingers 7.1250199999999415
lthumb -6.430624276549519 38.664308861851524
rfemur -48.89498235264988 3.157089969733109 29.224936975997785
rtibia 44.93309984823627
rfoot -21.907458080898884 -3.9401879731212937
rtoes -43.94669413155164
lfemur -35.277832333891155 -22.857779019061542 -13.079680744232217
ltibia 10.856776938927915
lfoot -45.749504326579775 7.684899007894992
ltoes -33.78411009283917
291
root 0 0 0 17.419969444259838 -4.40038259338454 -1.4426358832532147
lowerback 21.42092067946083 -3.2530810427084225 -1.1970480657046716
upperback -0.826946587209239 -4.8156501894614525 3.8387261676304956
thorax -12.704586185026976 -2.146030914468836 5.232323553810211
lowerneck -9.635669289079814 9.386483997358159 18.64259238943154
upperneck 21.384438969715482 11.015873835133277 -8.31823414764652
head 9.8090126409289 5.959593240109197 -4.619612923821363
rclavicle 1.1974020174542241E-15 6.3806426237240354E-15
rhumerus 29.261530287750883 17.215635265105444 -72.71062144189221
rradius 102.67702727531702
rwrist -39.02574806227991
rhand -24.432424380187356 -24.361544136921864
rfingers 7.125019999999998
rthumb 2.0974685109775013 -54.78347134822599
lclavicle -2.8246883227757357E-15 6.606798960870938E-15
lhumerus 25.88679930794042 -34.83740341626404 73.02012754385439
lradius 141.69899054831328
lwrist 8.663016860478791
lhand -33.26247980783162 8.20698981420355
lfingers 7.1250199999999415
lthumb -6.435154757977177 38.66144264236871
rfemur -49.395219390004094 3.2956517451319893 29.0912872448089
rtibia 45.09992148282949
rfoot -22.196470912684013 -3.9236324799561437
rtoes -43.76226663657448
lfemur -35.613226255474494 -22.61915145979922 -13.13568600520058
ltibia 11.517749554164258
lfoot -45.590006282331096 7.472926645137782
ltoes -33.86443925394046
